<?xml version="1.0" encoding="UTF-8"?>
<!DOCTYPE svg PUBLIC "-//W3C//DTD SVG 1.1//EN" "http://www.w3.org/Graphics/SVG/1.1/DTD/svg11.dtd">
<svg version="1.1" xmlns="http://www.w3.org/2000/svg" xmlns:xlink="http://www.w3.org/1999/xlink" x="0" y="0" width="600" height="340" viewBox="0, 0, 600, 340">
  <g id="Layer_2">
    <path d="M927.6,668 L1002.6,668 L1002.6,743.6 L927.6,743.6 L927.6,668 z" fill="#5C5A5A" display="none"/>
  </g>
  <g id="Page-1">
    <path d="M411.523,353.059 C404.222,353.059 398.299,347.078 398.299,339.704 C398.299,332.331 404.222,326.358 411.523,326.358 C418.832,326.358 424.763,332.331 424.763,339.704 C424.763,347.078 418.832,353.059 411.523,353.059 L411.523,353.059 z M369.096,353.059 C361.787,353.059 355.864,347.078 355.864,339.704 C355.864,332.331 361.787,326.358 369.096,326.358 C376.397,326.358 382.329,332.331 382.329,339.704 C382.329,347.078 376.397,353.059 369.096,353.059 L369.096,353.059 z M454.732,294.654 L143.829,294.654 C136.976,294.654 131.411,300.26 131.411,307.186 L131.411,372.859 C131.411,379.768 136.976,385.382 143.829,385.382 L454.732,385.382 C461.592,385.382 467.149,379.768 467.149,372.859 L467.149,307.186 C467.149,300.26 461.592,294.654 454.732,294.654 L454.732,294.654 z" fill="#FFFFFF" id="Shape"/>
    <path d="M60.043,368.736 L60.035,363.497 L65.225,363.497 C78.05,363.497 88.487,352.969 88.487,340.022 C88.487,327.075 78.05,316.54 65.225,316.54 L60.043,316.54 L60.051,291.216 C37.701,296.023 20.94,316.043 20.94,340.022 C20.94,363.994 37.709,384.021 60.051,388.821 C60.059,381.455 60.059,374.236 60.043,368.736 L60.043,368.736 z" fill="#FFFFFF" id="Shape"/>
    <path d="M119.857,340.022 C119.857,312.458 97.711,290.116 70.399,290.116 L70.399,306.501 C86.483,309.027 98.835,323.091 98.835,340.022 C98.835,356.946 86.491,371.009 70.407,373.535 C70.415,378.465 70.407,384.168 70.407,389.929 C97.711,389.921 119.857,367.579 119.857,340.022 L119.857,340.022 z" fill="#CEDEEA" id="Shape"/>
    <path d="M540.538,312.181 L540.555,317.403 L535.364,317.403 C522.531,317.403 512.094,327.939 512.094,340.886 C512.094,353.825 522.531,364.36 535.364,364.36 L540.538,364.36 L540.538,388.869 C562.994,384.16 579.877,364.083 579.877,340.022 C579.877,315.961 562.994,295.876 540.53,291.167 C540.522,298.859 540.522,306.444 540.538,312.181 L540.538,312.181 z" fill="#CEDEEA" id="Shape"/>
    <path d="M480.96,340.022 C480.96,367.497 502.984,389.79 530.182,389.92 L530.182,374.399 C514.098,371.881 501.754,357.817 501.754,340.886 C501.754,323.962 514.09,309.899 530.182,307.365 C530.182,302.199 530.182,296.17 530.182,290.124 C502.984,290.254 480.96,312.539 480.96,340.022 L480.96,340.022 z" fill="#FFFFFF" id="Shape"/>
    <path d="M258.552,153.352 C258.552,172.825 248.53,188.616 236.178,188.616 C223.826,188.616 213.803,172.834 213.803,153.352 C213.803,133.878 223.817,118.095 236.178,118.095 C248.53,118.095 258.552,133.878 258.552,153.352 L258.552,153.352 z" fill="#FFFFFF" id="Shape"/>
    <path d="M384.757,153.352 C384.757,172.825 374.743,188.616 362.382,188.616 C350.03,188.616 340.016,172.834 340.016,153.352 C340.016,133.878 350.03,118.095 362.382,118.095 C374.743,118.095 384.757,133.878 384.757,153.352 L384.757,153.352 z" fill="#FFFFFF" id="Shape"/>
    <path d="M456.834,415.033 C456.834,408.343 451.464,402.925 444.832,402.925 L153.737,402.925 C147.104,402.925 141.726,408.343 141.726,415.033 L141.726,422.594 C141.726,476.501 212.272,520.191 299.284,520.191 C386.297,520.191 456.834,476.501 456.834,422.594 L456.834,415.033 L456.834,415.033 z" fill="#FFFFFF" id="Shape"/>
    <path d="M321.61,253.654 C320.216,242.686 310.919,234.204 299.659,234.204 C288.374,234.204 279.061,242.719 277.7,253.727 C200.897,247.2 141.734,206.403 141.734,157.035 C141.734,103.128 212.272,59.43 299.284,59.43 C386.297,59.43 456.834,103.128 456.834,157.035 C456.834,206.24 398.054,246.948 321.61,253.654 L321.61,253.654 z M126.563,278.847 L472.755,278.847 C481.31,252.065 506.219,232.689 535.609,232.689 L536.358,232.689 C535.935,107.682 429.954,6.476 299.284,6.476 C168.607,6.476 62.626,107.69 62.202,232.705 C62.699,232.697 63.204,232.689 63.701,232.689 C93.099,232.689 118.008,252.065 126.563,278.847 L126.563,278.847 z" fill="#FFFFFF" id="Shape"/>
    <path d="M411.523,353.059 C404.222,353.059 398.299,347.078 398.299,339.704 C398.299,332.331 404.222,326.358 411.523,326.358 C418.832,326.358 424.763,332.331 424.763,339.704 C424.763,347.078 418.832,353.059 411.523,353.059 L411.523,353.059 z M369.096,353.059 C361.787,353.059 355.864,347.078 355.864,339.704 C355.864,332.331 361.787,326.358 369.096,326.358 C376.397,326.358 382.329,332.331 382.329,339.704 C382.329,347.078 376.397,353.059 369.096,353.059 L369.096,353.059 z M454.732,294.654 L298.64,294.654 C298.64,331.059 298.64,365.688 298.64,385.382 L454.732,385.382 C461.592,385.382 467.149,379.768 467.149,372.859 L467.149,307.186 C467.149,300.26 461.592,294.654 454.732,294.654 L454.732,294.654 z" fill="#CEDEEA" id="Shape"/>
    <path d="M456.834,415.033 C456.834,408.343 451.464,402.925 444.832,402.925 L298.363,402.925 C298.372,443.29 298.372,486.385 298.64,520.191 C385.653,520.191 456.834,476.501 456.834,422.594 L456.834,415.033 L456.834,415.033 z" fill="#CEDEEA" id="Shape"/>
    <path d="M299.284,6.476 C429.953,6.476 535.934,107.682 536.358,232.689 L535.609,232.689 C506.219,232.689 481.31,252.065 472.755,278.847 L299.577,278.847 C299.52,264.352 299.52,246.019 299.659,234.204 C310.919,234.204 320.216,242.686 321.61,253.654 C398.054,246.948 456.834,206.24 456.834,157.035 C456.834,103.128 386.297,59.43 299.284,59.43 C299.52,49.954 299.52,19.277 299.284,6.476 z" fill="#CEDEEA"/>
  </g>
</svg>
